/* XPM */
static char *_e281147580e43ab9fe215c19e785da5mXgG4INGY3iZCgdr[] = {
/* columns rows colors chars-per-pixel */
"32 32 156 2 ",
"   c #7F3C30",
".  c #7B422A",
"X  c #78462B",
"o  c #78462C",
"O  c #744D2F",
"+  c #744E30",
"@  c #794D30",
"#  c #675732",
"$  c #685632",
"%  c #635B33",
"&  c #615D34",
"*  c #5B6335",
"=  c #5B6336",
"-  c #586637",
";  c #586738",
":  c #81222B",
">  c #982721",
",  c #9A2722",
"<  c #972922",
"1  c #9B2822",
"2  c #9D2823",
"3  c #992C24",
"4  c #9E2D25",
"5  c #9E2D27",
"6  c #8B3224",
"7  c #883726",
"8  c #833A27",
"9  c #843A27",
"0  c #803F29",
"q  c #893C2A",
"w  c #9B3128",
"e  c #9D3229",
"r  c #9C342A",
"t  c #9D362B",
"y  c #9E392E",
"u  c #A32A26",
"i  c #BA2A2A",
"p  c #A4352B",
"a  c #B2322D",
"s  c #A03F32",
"d  c #A93D30",
"f  c #C13233",
"g  c #CA3838",
"h  c #CD393A",
"j  c #B9431E",
"k  c #934E3D",
"l  c #BD4A2E",
"z  c #A04133",
"x  c #A14335",
"c  c #A24637",
"v  c #AB4639",
"b  c #A94F3B",
"n  c #BD4732",
"m  c #BD4830",
"M  c #B9473F",
"N  c #B24B3C",
"B  c #A6513F",
"V  c #B1573F",
"C  c #C94E36",
"Z  c #CE423E",
"A  c #CC5833",
"S  c #E7733C",
"D  c #F53D40",
"F  c #994F41",
"G  c #B04F40",
"H  c #B54E41",
"J  c #A75341",
"K  c #A25245",
"L  c #AB5541",
"P  c #AD5544",
"I  c #AD5445",
"U  c #B05641",
"Y  c #B65742",
"T  c #B65A40",
"R  c #B25846",
"E  c #BC5D41",
"W  c #B95C45",
"Q  c #B75C4A",
"!  c #C44840",
"~  c #CB4845",
"^  c #CF4B45",
"/  c #CB5647",
"(  c #CC5444",
")  c #CE5348",
"_  c #C75A4B",
"`  c #C8584B",
"'  c #D45348",
"]  c #DD564B",
"[  c #D7584B",
"{  c #DB5D4A",
"}  c #EA4046",
"|  c #EA4349",
" . c #ED4449",
".. c #E64D4B",
"X. c #EC494B",
"o. c #FA4045",
"O. c #F14048",
"+. c #F2424A",
"@. c #F7414A",
"#. c #F4434B",
"$. c #F6424B",
"%. c #F7424B",
"&. c #F1464B",
"*. c #F74A4A",
"=. c #F84D4B",
"-. c #E15048",
";. c #E1514B",
":. c #E7544A",
">. c #E6574B",
",. c #F6554C",
"<. c #F9584C",
"1. c #F95B4D",
"2. c #F95F4D",
"3. c #C76354",
"4. c #D16950",
"5. c #D96D5A",
"6. c #E56447",
"7. c #E2634C",
"8. c #FA6B47",
"9. c #F96349",
"0. c #FA634D",
"q. c #FA6F48",
"w. c #FB6A4E",
"e. c #F86C4E",
"r. c #EF724F",
"t. c #F97046",
"y. c #F77944",
"u. c #F77E47",
"i. c #F77049",
"p. c #F5764F",
"a. c #F8714D",
"s. c #F87A4D",
"d. c #FC7E4D",
"f. c #FC7C50",
"g. c #FD7D50",
"h. c #F97E5D",
"j. c #E46E60",
"k. c #E07263",
"l. c #EC7B6D",
"z. c #EF7B6E",
"x. c #FB8E28",
"c. c #F79326",
"v. c #FA8731",
"b. c #F9883C",
"n. c #FD9039",
"m. c #FCA532",
"M. c #FDAB31",
"N. c #FC8742",
"B. c #FC804B",
"V. c #FC9E4F",
"C. c #FC8550",
"Z. c #F48067",
"A. c #FB9367",
"S. c #FADA5E",
"D. c #FAE141",
"F. c #FACD60",
/* pixels */
"; ; ; ; ; ; ; ; ; ; ; ; ; ; ; ; ; ; ; ; ; ; ; ; ; ; ; ; ; ; ; ; ",
"; ; ; ; ; ; ; ; ; ; ; ; ; ; ; ; ; ; ; ; ; ; ; ; ; ; ; ; ; ; ; ; ",
"; ; ; ; ; ; ; ; ; ; ; ; ; ; ; ; ; ; ; ; ; ; ; ; ; ; ; ; ; ; ; ; ",
"; ; ; ; ; ; ; ; ; ; ; ; ; ; ; ; ; ; ; ; ; ; ; ; ; ; ; ; ; ; ; ; ",
"; ; ; ; ; ; ; ; ; ; ; ; ; ; ; ; ; ; ; ; ; ; ; ; ; ; ; ; ; ; ; ; ",
"; ; ; ; ; ; ; ; ; ; ; ; ; ; ; ; ; ; ; ; ; ; ; ; ; ; ; ; ; ; ; ; ",
"; ; ; ; ; ; ; ; ; ; ; ; ; ; ; ; ; ; ; ; ; ; ; ; ; ; ; ; ; ; ; ; ",
"; ; ; ; ; ; ; ; ; ; ; ; ; ; ; ; ; ; ; ; ; ; ; ; ; ; ; ; ; ; ; ; ",
"; ; ; ; ; ; . o ; ; ; ; ; . 9 7 9 9 9 0 8 ; ; ; ; ; ; ; ; ; ; ; ",
"; ; ; ; - @ b v 2 4 3 3 , i u Z *.>.{ >.] 4 + ; ; ; ; ; ; ; ; ; ",
"; ; ; ; & M ! ^ ( d y y a g 0.h.9.d.d.d.r.X.Z . $ ; ; ; ; ; ; ; ",
"; ; ; ; - + 1 p I O.O.' 1 2 4 4 4 4.g.g.g.w.@.#.f = ; ; ; ; ; ; ",
"; ; ; ; ; ; ; $ , G D %.X.[ %.;.| ^ %.C.M.g.7.$.D > - - ; ; ; ; ",
"; ; ; ; ; ; ; = % e Y O.,.p.x.c.w.i ) 2.S.F.u.$.@., - = ; ; ; ; ",
"; ; ; ; ; ; ; O e r c / %.%.a.v.m.A G 1.=.D.n.g.1.-.. = ; ; ; ; ",
"; ; ; ; ; ; . s r r x t %.%.$.a.N.S : %.w.b.V.g.1.D k ; ; ; ; ; ",
"; ; ; ; ; - 6 e B B V U ^ %.%.t.e.D 0  .@.s.B.[ ..[ h $ - ; ; ; ",
"; ; ; ; ; - 6 e V B B U W &.%.e.] f F I | [ [ [ [ [ z # ; ; ; ; ",
"; ; ; ; ; ; 6 e V W l.K j.Z.A.1.| , < > v k.5.z.3.J ` # ; ; ; ; ",
"; ; ; ; ; ; X z B U _ I Q F _ _ x 6.8.8.C l l n m j r # ; ; ; ; ",
"; ; ; ; ; ; ; % q e R B I B J J 3 I H H Y T T T E y.9 - ; ; ; ; ",
"; ; ; ; ; ; ; ; - * 7 9 7 7 7 7 7 7 7 7 7 7 7 7 7 7 - ; ; ; ; ; ",
"; ; ; ; ; ; ; ; ; ; - - ; ; ; ; - ; ; ; ; ; ; ; - - ; ; ; ; ; ; ",
"; ; ; ; ; ; ; ; ; ; ; ; ; ; ; ; - - ; ; ; ; ; ; ; ; ; ; ; ; ; ; ",
"; ; ; ; ; ; ; ; ; ; ; ; ; ; ; ; ; ; ; ; ; ; ; ; ; ; ; ; ; ; ; ; ",
"; ; ; ; ; ; ; ; ; ; ; ; ; ; ; ; ; ; ; ; ; ; ; ; ; ; ; ; ; ; ; ; ",
"; ; ; ; ; ; ; ; ; ; ; ; ; ; ; ; ; ; ; ; ; ; ; ; ; ; ; ; ; ; ; ; ",
"; ; ; ; ; ; ; ; ; ; ; ; ; ; ; ; ; ; ; ; ; ; ; ; ; ; ; ; ; ; ; ; ",
"; ; ; ; ; ; ; ; ; ; ; ; ; ; ; ; ; ; ; ; ; ; ; ; ; ; ; ; ; ; ; ; ",
"; ; ; ; ; ; ; ; ; ; ; ; ; ; ; ; ; ; ; ; ; ; ; ; ; ; ; ; ; ; ; ; ",
"; ; ; ; ; ; ; ; ; ; ; ; ; ; ; ; ; ; ; ; ; ; ; ; ; ; ; ; ; ; ; ; ",
"; ; ; ; ; ; ; ; ; ; ; ; ; ; ; ; ; ; ; ; ; ; ; ; ; ; ; ; ; ; ; ; "
};
