/* XPM */
static char *b116c319222d456dae57428164270feeBJhTz420BO2Eg7Ua[] = {
/* columns rows colors chars-per-pixel */
"32 32 62 1 ",
"  c #586738",
". c #596839",
"X c #5D6C3F",
"o c #5E6D41",
"O c #6A7953",
"+ c #6B7B54",
"@ c #72805D",
"# c #FDEA31",
"$ c #FDEB31",
"% c #FDEA32",
"& c #FDE835",
"* c #FDEB35",
"= c #FDEC36",
"- c #FCE839",
"; c #FDDE4B",
": c #FCDF57",
"> c #FDE146",
", c #FDEE42",
"< c #FDE048",
"1 c #FCE150",
"2 c #FCDF60",
"3 c #F7E168",
"4 c #F6E16B",
"5 c #FCE36D",
"6 c #FCE476",
"7 c #FDF977",
"8 c #FDFA7B",
"9 c #ABB6AF",
"0 c #AFBBB5",
"q c #B0BCB7",
"w c #B3BFBB",
"e c #FDFC87",
"r c #FDFE8D",
"t c #C3CED2",
"y c #C7D2D7",
"u c #C8D1D3",
"i c #CED7DB",
"p c #CFDADD",
"a c #E4EBC9",
"s c #E4ECCA",
"d c #E4EDD2",
"f c #E3EDD4",
"g c #FAF3D0",
"h c #FAF4D9",
"j c #FAF4DF",
"k c #DFEEE6",
"l c #ECEEEE",
"z c #E1F1E9",
"x c #E2F0EA",
"c c #E0F1F2",
"v c #E9F2F3",
"b c #EAF2F3",
"n c #EDF7F5",
"m c #EEF8F8",
"M c #F0F2F3",
"N c #F6F7F7",
"B c #FAF9F7",
"V c #F7F7F8",
"C c #F1F9F9",
"Z c #F2FAFA",
"A c #F8FAFA",
"S c gray98",
/* pixels */
"            +ttttttq            ",
"           OtVVVNNNl9           ",
"          OuVSSSSSSBl9          ",
"         OuVSSSSSSSSVl9         ",
"        +uVSSSSSSSSSSSl9        ",
"       OyVSSSSSSSSSSSSBl9       ",
"       +iSSSSSSSSSSSSSSMq       ",
"       +iSSSSSSSSSSSSSSbq       ",
"      OuVSSSSSSSSSSSSSSVl9      ",
"      +iSSSSSSSSSSSSSSSSMq      ",
"     OuVSSSSSSSSSSSSSSSSSl9     ",
"     +iSSSSSSSSSSSSSSSSSSMq     ",
"     +iSSSSSj11::::6SSSSSMq     ",
"    OuVSSSSh1*%%%%%-6SSSSSl9    ",
"    +iSSSSj2%%,ee7%%-6SSSSMq    ",
"    +iSSSSh<%,err8%%*5SSSSMq    ",
"    OiSSSj1$-rrr8*%%%*6SSSMq    ",
"    OiSSh1$$,rr8*%$$%%-6SSMq    ",
"    +pSSh>$$,r8*$$$$%%&5SSbq    ",
"    OiSSh<$$***$$$$$%*&5SSMq    ",
"    +pSSh<$$$$$$$$$$$$&5SSMq    ",
"    OiSSh>$$$$$$$$$$$$*5SSbq    ",
"    +pZSSg>$$$$$$$$$$*3xZZbq    ",
"    OiZZmd>$$$$$$$$$$%3cZZbq    ",
"     @pZnf1%%$$$$$%%%&4cZbwX    ",
"     +pZZns>$$$$$$$%%4xmZbq     ",
"      @pZZms>%$$$$%&4xZZbwo     ",
"      OiZZZms;;;;;;3xZZZbq      ",
"      .@pAZZnkkkzzkznZZbwX      ",
"       .@pZZCCnCCnCCZZbwX       ",
"         +ipZZZZZZZZbywX        ",
"          o+yyyyyyyywoX         "
};
