/* XPM */
static char *result[] = {
/* columns rows colors chars-per-pixel */
"32 32 161 2 ",
"   c #040404",
".  c #0A0304",
"X  c #080906",
"o  c #0A0A09",
"O  c #1B0304",
"+  c #150907",
"@  c #160C07",
"#  c #0E100A",
"$  c #13150C",
"%  c #1E150A",
"&  c #191C11",
"*  c #240205",
"=  c #2B0205",
"-  c #2E0509",
";  c #250D0B",
":  c #2A0B0B",
">  c #350202",
",  c #3C0105",
"<  c #350108",
"1  c #3B0008",
"2  c #241C0E",
"3  c #33100A",
"4  c #2F1C10",
"5  c #3E1A1E",
"6  c #1D2213",
"7  c #31250E",
"8  c #232514",
"9  c #2B2415",
"0  c #232917",
"q  c #272A18",
"w  c #2A2D19",
"e  c #332814",
"r  c #3C2B1A",
"t  c #2D331C",
"y  c #3D3112",
"u  c #333C20",
"i  c #4B0101",
"p  c #490107",
"a  c #45000A",
"s  c #570303",
"d  c #5B0004",
"f  c #530008",
"g  c #5B0008",
"h  c #45110A",
"j  c #4B150D",
"k  c #4C1C1C",
"l  c #5D1A1A",
"z  c #630003",
"x  c #6D0202",
"c  c #690D05",
"v  c #760201",
"b  c #7C0000",
"n  c #770B07",
"m  c #7E0508",
"M  c #7B1B0F",
"N  c #621B19",
"B  c #55240F",
"V  c #5F2710",
"C  c #542E1B",
"Z  c #433314",
"A  c #54341D",
"S  c #62230E",
"D  c #7C2608",
"F  c #753A0E",
"G  c #63291A",
"H  c #7C2615",
"J  c #623914",
"K  c #4C3F2E",
"L  c #6F3C2F",
"P  c #793920",
"I  c #3B4325",
"U  c #3D4827",
"Y  c #3E4928",
"T  c #554317",
"R  c #5C4315",
"E  c #5C4B1B",
"W  c #714210",
"Q  c #424E2B",
"!  c #47542D",
"~  c #4A562E",
"^  c #565C2F",
"/  c #595E2F",
"(  c #544A3F",
")  c #4D5A31",
"_  c #505E33",
"`  c #774A27",
"'  c #7E5129",
"]  c #68563C",
"[  c #546235",
"{  c #586738",
"}  c #514C4A",
"|  c #5D5145",
" . c #74664A",
".. c #7D7461",
"X. c #830001",
"o. c #8F0000",
"O. c #950704",
"+. c #9C0000",
"@. c #900808",
"#. c #891818",
"$. c #911B1B",
"%. c #A20101",
"&. c #AE0301",
"*. c #A40D09",
"=. c #B30101",
"-. c #B30A09",
";. c #B90808",
":. c #842407",
">. c #9F2407",
",. c #9D2415",
"<. c #94381F",
"1. c #A1371C",
"2. c #9B2827",
"3. c #C10E0E",
"4. c #CC0D0D",
"5. c #C71415",
"6. c #D11515",
"7. c #DF1919",
"8. c #E51D1D",
"9. c #CA341A",
"0. c #E52424",
"q. c #EB2222",
"w. c #F32626",
"e. c #FB2A2A",
"r. c #866114",
"t. c #84482A",
"y. c #8D5A2D",
"u. c #92552C",
"i. c #AE4924",
"p. c #B44524",
"a. c #8C6031",
"s. c #A76837",
"d. c #B56336",
"f. c #B46C36",
"g. c #CB4F28",
"h. c #CB6A36",
"j. c #D37A3E",
"k. c #804B49",
"l. c #8C5544",
"z. c #985643",
"x. c #865954",
"c. c #9B5959",
"v. c #AB5745",
"b. c #B67646",
"n. c #837C6E",
"m. c #A5746B",
"M. c #AD7B70",
"N. c #8F8673",
"B. c #988475",
"V. c #CB8444",
"C. c #C68948",
"Z. c #E08945",
"A. c #E6934A",
"S. c #F29E4E",
"D. c #E9A15F",
"F. c #F2A351",
"G. c #EBB171",
"H. c #AFA694",
"J. c #DEB583",
"K. c #EEC193",
"L. c #D0C7BC",
/* pixels */
"{ { { { { { { { { { { { { { { { { { { { { { { { { { { { { { { { ",
"{ { { { { { { { _ Y ! Y Y ! Q ! ) { { { { { { { { { { { { { { { ",
"{ { { { { { { { U # # # # # # # u { { { { { { { { { { { { { { { ",
"{ { { { { { { { I   a n #.$.#.x j t ) { { { { { { { { { { { { { ",
"{ { { { { { { { U $ x -.q.e.w.4.n ; I _ { { { { { { { { { { { { ",
"{ { { { { { { { [ ! 4 s ;.8.e.w.;.X.3 t { { { { { { { { { { { { ",
"{ { { { { { [ I t I 8 h o.3.7.7.4.%.h q t t Q [ { { { { { { { { ",
"{ { { { { [ ~ &   . 7 B v +.=.=.-.*.G e # X 8 ) [ { { { { { { { ",
"{ { { { { u & < < < J F n b o.=.2.| B.n.} 5 - & U { { { { { { { ",
"{ { { [ Q 9 * 1 a g J W D D :.>.z.H.N...| k 1 * 9 Q [ { { { { { ",
"{ { { ! $ * a a s v B R ' r.r.r.m.H.] Z Z h a a * & ) { { { { { ",
"{ { { ! $ > z z x v c S R R R R  .N.N...| N z z = & ) { { { { { ",
"{ { { ! $ , v X.X.X.X.n S V V V L x.M.m.k.#.b v > & ) { { { { { ",
"{ { { ! $ , b %.=.=.=.=.&.&.&.&.&.&.-.-.-.=.%.v > 6 ) { { { { { ",
"{ { { ! $ > z X.%.=.6.8.8.7.7.7.7.8.8.4.=.+.X.d = & ) { { { { { ",
"{ { { ~ 6 ; 1 z X.+.6.0.0.0.0.0.0.0.0.5.+.b s , ; 0 ) { { { { { ",
"{ { { [ ~ w O , f g X.@.@.@.@.@.@.@.@.m g f 1 + w ) [ { { { { { ",
"{ { { { { Q q : - - H 1.1.1.i.i.v.c.l G l.k ; w Q { { { { { { { ",
"{ { { { { { ) 8 o   u.j.j.A.F.F.K.L.( ] J.K 6 _ { { { { { { { { ",
"{ { { { { { [ ! t   ` d.d.j.Z.Z.D.G.C.b.b.r 6 _ { { { { { { { { ",
"{ { { { { { { { Q 0 A P <.p.g.g.h.V.V.s.J r u [ { { { { { { { { ",
"{ { { { { { { { { { 6 * x +.=.=.,.t.t.C o Y { { { { { { { { { { ",
"{ { { { { { { { { { 6 * x +.=.=.O.M M j X Y { { { { { { { { { { ",
"{ { { { { { { { { { 6 O i ,.9.9.,.s x i X Y { { { { { { { { { { ",
"{ { { { { { { { { { 6   X y.S.S.' O d i X Y { { { { { { { { { { ",
"{ { { { { { { { { { 6     a.F.A.` . p , X Y { { { { { { { { { { ",
"{ { { { { { { { { { w #   ` C.f.A @ - - & Q { { { { { { { { { { ",
"{ { { { { { { { { { _ I X @ % % 4 7 @ 8 ) [ { { { { { { { { { { ",
"{ { { { { { { { { { { U X % 7 7 Z Z $ 8 { { { { { { { { { { { { ",
"{ { { { { { { { { { { Y $ y E E E T 2 t { { { { { { { { { { { { ",
"{ { { { { { { { { { { _ Q ) / / ^ ^ ! ! { { { { { { { { { { { { ",
"{ { { { { { { { { { { { { { { { { { { { { { { { { { { { { { { { "
};
