/* XPM */
static char *result[] = {
/* columns rows colors chars-per-pixel */
"32 32 163 2 ",
"   c #040404",
".  c #0A0304",
"X  c #0D0A06",
"o  c #130304",
"O  c #1A0303",
"+  c #130B07",
"@  c #1C0A07",
"#  c #120F09",
"$  c #1D0E0B",
"%  c #0E100A",
"&  c #13150D",
"*  c #1C140A",
"=  c #1C1D0F",
"-  c #1A1C11",
";  c #240303",
":  c #2D0107",
">  c #2E0509",
",  c #200E09",
"<  c #330204",
"1  c #3B0106",
"2  c #320208",
"3  c #390008",
"4  c #350F0B",
"5  c #24140E",
"6  c #241B0B",
"7  c #3C140B",
"8  c #241810",
"9  c #30250F",
"0  c #292411",
"q  c #232917",
"w  c #2E2A13",
"e  c #242A18",
"r  c #282F1A",
"t  c #322413",
"y  c #3A2313",
"u  c #342D16",
"i  c #3D2B15",
"p  c #2D341D",
"a  c #3F3013",
"s  c #32351E",
"d  c #30381E",
"f  c #3A391F",
"g  c #353D22",
"h  c #3D3F22",
"j  c #440105",
"k  c #4C0203",
"l  c #44000A",
"z  c #490009",
"x  c #410B0A",
"c  c #520104",
"v  c #5C0003",
"b  c #550803",
"n  c #5D0906",
"m  c #5D0E08",
"M  c #44120B",
"N  c #4C120B",
"B  c #53150A",
"V  c #650003",
"C  c #6C0001",
"Z  c #630906",
"A  c #6B0B04",
"S  c #740101",
"D  c #7C0101",
"F  c #7A0C05",
"G  c #730208",
"H  c #611207",
"J  c #681308",
"K  c #751107",
"L  c #52240F",
"P  c #402112",
"I  c #4F2710",
"U  c #4F2F19",
"Y  c #5F2710",
"T  c #443212",
"R  c #40361D",
"E  c #4A3D1C",
"W  c #513E15",
"Q  c #583E14",
"!  c #5A351C",
"~  c #61250E",
"^  c #6D2B0E",
"/  c #77230C",
"(  c #7D370D",
")  c #712217",
"_  c #722419",
"`  c #663C12",
"'  c #79361C",
"]  c #4A3C20",
"[  c #3B4425",
"{  c #3D4827",
"}  c #4E4219",
"|  c #574215",
" . c #5B4C1C",
".. c #604414",
"X. c #6C4211",
"o. c #6D4812",
"O. c #7E5B14",
"+. c #404425",
"@. c #414827",
"#. c #434E2A",
"$. c #47532D",
"%. c #49562E",
"&. c #4F5A2F",
"*. c #4D5A31",
"=. c #525E32",
"-. c #724724",
";. c #744A26",
":. c #556336",
">. c #586131",
",. c #586738",
"<. c #850100",
"1. c #8B0000",
"2. c #930000",
"3. c #9C0000",
"4. c #950B0C",
"5. c #9C0C0C",
"6. c #9F170C",
"7. c #A60301",
"8. c #AC0101",
"9. c #A10E0E",
"0. c #B60100",
"q. c #BB0303",
"w. c #B40905",
"e. c #BC0708",
"r. c #B40E08",
"t. c #A41B0D",
"y. c #B3110A",
"u. c #B6190D",
"i. c #BB1D0F",
"p. c #BE1F10",
"a. c #922A08",
"s. c #A12A08",
"d. c #BA351A",
"f. c #823521",
"g. c #8F3F25",
"h. c #AE3D23",
"j. c #C30808",
"k. c #CD1212",
"l. c #D31313",
"z. c #DA1616",
"x. c #DF1919",
"c. c #E31D1D",
"v. c #CA341A",
"b. c #EB2121",
"n. c #F62A2A",
"m. c #FF2D2D",
"M. c #815E14",
"N. c #805129",
"B. c #BB5A31",
"V. c #8F6533",
"C. c #9B6D36",
"Z. c #B16734",
"A. c #B46C36",
"S. c #AA753B",
"D. c #AF793D",
"F. c #D26D37",
"G. c #D46F38",
"H. c #B97F40",
"J. c #E69349",
"K. c #EB9E4E",
"L. c #F19E4E",
"P. c #EFA04F",
"I. c #F0A150",
/* pixels */
",.,.,.,.,.,.,.,.,.,.,.,.,.,.,.,.,.,.,.,.,.,.,.,.,.,.,.,.,.,.,.,.",
",.,.,.,.,.,.,.,.,.,.,.,.,.,.[ r r { ,.,.,.,.,.,.,.,.,.,.,.,.,.,.",
",.,.,.,.,.,.,.,.,.,.,.,.=.$.t ; ; t $.:.,.,.,.,.,.,.,.,.,.,.,.,.",
",.,.,.,.,.,.,.,.,.,.,.,.[ & Z 2.2.n - #.,.,.,.,.,.,.,.,.,.,.,.,.",
",.,.,.,.,.,.,.,.,.,.=.[ P c 9.l.l.5.k i [ :.,.,.,.,.,.,.,.,.,.,.",
",.,.,.,.,.,.,.,.,.,.$.& c 0.c.m.m.c.8.1 - *.,.,.,.,.,.,.,.,.,.,.",
",.,.,.,.,.,.,.#.e e 0 0 J 0.c.m.m.x.8.B 0 q q r $.,.,.,.,.,.,.,.",
",.,.,.,.,.:.$.s o o , T / 7.l.b.b.k.7.^ T @ o $ g $.:.,.,.,.,.,.",
",.,.,.,.,.%.q , 3 3 M o.( D 7.j.j.7.<.( X.x 3 2 $ r :.,.,.,.,.,.",
",.,.,.,.#.p , 2 z c m ` X.a.a.s.s.a.( X.` n c l : 5 g #.,.,.,.,.",
",.,.,.,.r o 2 z l V A I ..M.M.M.M.M.O.Q L C V l z 2 . p ,.,.,.,.",
",.,.,.,.r O k V V S G A ~ | | | | | Q ~ A S C V V k . p ,.,.,.,.",
",.,.,.,.r O v D <.<.<.<.K Y Y Y Y Y Y F <.<.<.<.D c . p ,.,.,.,.",
",.,.,.,.r O v 1.0.8.8.8.8.7.7.7.7.7.7.8.8.0.0.7.1.c . p ,.,.,.,.",
",.,.,.,.r o j S 2.8.q.l.z.z.z.z.z.z.x.z.k.0.7.1.C j . p ,.,.,.,.",
",.,.,.,.p o 2 c S 2.e.b.n.n.n.n.n.n.n.n.c.q.2.C c 2 X p ,.,.,.,.",
",.,.,.,.$.g 5 2 c V G 4.9.9.9.5.9.9.9.9.4.C v z : 8 [ %.,.,.,.,.",
",.,.,.,.,.*.p 5 2 2 3 V V V V C V C V V v 3 2 > 5 d :.,.,.,.,.,.",
",.,.,.,.,.,.:.g . . o 3 z z k z z z z z < o . % [ :.,.,.,.,.,.,.",
",.,.,.,.,.,.,.h   2 Z _ f.g.g.N.g.g.g.f.) Z : % { ,.,.,.,.,.,.,.",
",.,.,.,.,.:.=.g O C r.h.B.G.G.G.G.G.F.B.h.w.C 5 h =.,.,.,.,.,.,.",
",.,.,.,.,.%.r M 1.7.w.y.u.p.k.p.p.p.i.u.r.0.3.<.7 p :.,.,.,.,.,.",
",.,.,.,.%.+.E ' v.6.<.3.8.0.0.0.0.0.0.7.3.<.t.d.' ] +.%.,.,.,.,.",
",.,.,.,.p t D.K.L.-.; V 2.0.0.0.0.0.0.1.v O ;.I.K.C.& d ,.,.,.,.",
",.,.,.,.r t H.P.J.` O V <.1.2.2.2.2.2.D v o ;.J.I.S.# p ,.,.,.,.",
",.,.,.,.p u C.H.Z.U o v S S S D D S S S c o ! A.J.V.- g ,.,.,.,.",
",.,.,.,.%.@.R P y * o j V D S S S S S v 1 . * y 8 f #.*.,.,.,.,.",
",.,.,.,.,.*.g e q & X 4 N H c k k b m N 4 X & q q d :.,.,.,.,.,.",
",.,.,.,.,.,.,.,.,.r + 9 a T *     * T a 9 X p ,.,.,.,.,.,.,.,.,.",
",.,.,.,.,.,.,.,.,.r # T W W =     6 W W i X p ,.,.,.,.,.,.,.,.,.",
",.,.,.,.,.,.,.,.,.d = }  . .w & & u  . .} = g ,.,.,.,.,.,.,.,.,.",
",.,.,.,.,.,.,.,.,.=.%.=.>.>.&.$.$.&.>.>.=.%.=.,.,.,.,.,.,.,.,.,."
};
