/* XPM */
static char *result[] = {
/* columns rows colors chars-per-pixel */
"32 32 175 2 ",
"   c #040404",
".  c #090906",
"X  c #0D0907",
"o  c #120404",
"O  c #1A0304",
"+  c #190907",
"@  c #140D09",
"#  c #11140C",
"$  c #1E170F",
"%  c #1E180C",
"&  c #1D0F10",
"*  c #191D11",
"=  c #240205",
"-  c #2B0107",
";  c #210805",
":  c #2B0609",
">  c #28090A",
",  c #350203",
"<  c #3B0304",
"1  c #340208",
"2  c #3D0009",
"3  c #21140D",
"4  c #241C0B",
"5  c #2C1D0E",
"6  c #2A1C11",
"7  c #341E13",
"8  c #301A1A",
"9  c #1D2113",
"0  c #31230F",
"q  c #39210E",
"w  c #272411",
"e  c #282717",
"r  c #282E19",
"t  c #362D15",
"y  c #2D351D",
"u  c #3A3217",
"i  c #3C321C",
"p  c #30381E",
"a  c #353D21",
"s  c #393F22",
"d  c #440101",
"f  c #4B0009",
"g  c #490B0B",
"h  c #540103",
"j  c #5E0006",
"k  c #510F09",
"l  c #491915",
"z  c #521010",
"x  c #660003",
"c  c #6C0003",
"v  c #6E0A04",
"b  c #610808",
"n  c #740000",
"m  c #7B0100",
"M  c #63130A",
"N  c #6C1709",
"B  c #791C06",
"V  c #74140A",
"C  c #5D2D0E",
"Z  c #442816",
"A  c #5F2710",
"S  c #572F1B",
"D  c #483717",
"F  c #4E351C",
"G  c #583812",
"H  c #61250D",
"J  c #7E300A",
"K  c #76380D",
"L  c #63251A",
"P  c #732213",
"I  c #66351D",
"U  c #4A2328",
"Y  c #4C3A29",
"T  c #6E302B",
"R  c #394224",
"E  c #3D4827",
"W  c #3E4928",
"Q  c #574215",
"!  c #5D4717",
"~  c #6B4B14",
"^  c #7C4F11",
"/  c #424D2A",
"(  c #584A2F",
")  c #4F5126",
"_  c #47542D",
"`  c #49562E",
"'  c #545528",
"]  c #595929",
"[  c #4B4435",
"{  c #594637",
"}  c #4D5A31",
"|  c #505D32",
" . c #7C4327",
".. c #75433A",
"X. c #77593B",
"o. c #546235",
"O. c #586738",
"+. c #5E5956",
"@. c #615449",
"#. c #6F6550",
"$. c #786F5B",
"%. c #7F7766",
"&. c #840000",
"*. c #8B0001",
"=. c #89080A",
"-. c #9C0101",
";. c #920908",
":. c #8F1F10",
">. c #841E1D",
",. c #A40301",
"<. c #AD0100",
"1. c #AD0D0C",
"2. c #B40202",
"3. c #BD0404",
"4. c #A61716",
"5. c #AA1010",
"6. c #B31211",
"7. c #8E300A",
"8. c #962513",
"9. c #962A15",
"0. c #9D3611",
"q. c #BC2D17",
"w. c #BE341A",
"e. c #852B2B",
"r. c #883F25",
"t. c #9A3A21",
"y. c #93332C",
"u. c #C50B0B",
"i. c #CB0D0D",
"p. c #CD1515",
"a. c #D41313",
"s. c #D81A1B",
"d. c #E51D1D",
"f. c #C32F18",
"g. c #CA3D1E",
"h. c #EC2222",
"j. c #EF2A2A",
"k. c #F32626",
"l. c #F62A2A",
"z. c #FA2A2A",
"x. c #85631D",
"c. c #8A403E",
"v. c #AA5A33",
"b. c #A66231",
"n. c #B86537",
"m. c #B6793C",
"M. c #C66734",
"N. c #C46E3A",
"B. c #CE763C",
"V. c #D37A3E",
"C. c #804B49",
"Z. c #8F5F59",
"A. c #936B43",
"S. c #98735F",
"D. c #847566",
"F. c #A27068",
"G. c #C47E41",
"H. c #D97F40",
"J. c #8C877B",
"K. c #948B7B",
"L. c #B88B62",
"P. c #A89875",
"I. c #DB8342",
"U. c #DB8A46",
"Y. c #D7944A",
"T. c #E6974C",
"R. c #ED9C4E",
"E. c #E99951",
"W. c #F6A954",
"Q. c #C99E76",
"!. c #9E9481",
"~. c #A48E8E",
"^. c #CEAC87",
"/. c #D6AC96",
"(. c #ECBB8A",
/* pixels */
"O.O.O.O.O.O.O.O.O.O.O.O.O.O.o.} } } } } } } } o.O.O.O.O.O.O.O.O.",
"O.O.O.O.O.O.O.O.O.O.O.O.O.O._ 9 * * * * 9 * 9 / O.O.O.O.O.O.O.O.",
"O.O.O.O.O.O.O.O.O.O.O.O.o./ i < g z z g < + . E O.O.O.O.O.O.O.O.",
"O.O.O.O.O.O.O.O.O.O.O.O.} 9 < ,.p.j.j.s.2.h . E O.O.O.O.O.O.O.O.",
"O.O.O.O.O.O.O.O.O.O.O./ y k =.a.h.l.d.6.v l p ` O.O.O.O.O.O.O.O.",
"O.O.O.O.O.O.O.o.} } } r = *.u.k.l.h.u.m O y } } | O.O.O.O.O.O.O.",
"O.O.O.O.O.O.O.} y * 9 9 l ;.3.i.i.u.-.v q w 9 9 y | O.O.O.O.O.O.",
"O.O.O.O.O.O.` a $ & e [ X.y.4.2.<.-.&.N G q O O 3 s ` O.O.O.O.O.",
"O.O.O.O.O.O.y + 1 U +.!.!.D.C.2.-.m m B ^ C 2 2 1 @ y O.O.O.O.O.",
"O.O.O.O._ y 6 - 2 l [ #.%.!.S.0.7.J J K ~ H j f , - 3 a _ O.O.O.",
"O.O.O.O.R   - f f l D Y ( P.P.x.x.^ x.~ D M n h f f - . R O.O.O.",
"O.O.O.O.R   , x x A @.%.K.J.$.! Q Q Q C M v m c x x < . R O.O.O.",
"O.O.O.O.R   d m m >.C.F.F.Z...L C H H P m &.*.&.&.m d . s O.O.O.",
"O.O.O.O.R   d &.-.1.1.6.6.6.1.,.,.,.,.,.<.<.<.<.,.m d . R O.O.O.",
"O.O.O.O.s   , c *.,.2.u.s.a.a.a.a.a.a.a.a.u.2.,.*.x , . R O.O.O.",
"O.O.O.O.R . : f x *.<.s.z.z.z.l.l.l.l.z.l.a.<.&.x f = # R O.O.O.",
"O.O.O.O.` R 6 - f b c =.5.5.5.5.5.5.5.5.5.=.n x f = 6 R } O.O.O.",
"O.O.O.O.O.O.a $ : l T A b e.y.9.9.9.8.:.:.M 1 1 : * a O.O.O.O.O.",
"O.O.O.O.O.O.} E $ { Q.X.8 ~./.U.U.I.B.M.M.I o o $ / } O.O.O.O.O.",
"O.O.O.O.O.O.O._ * Y L.A.c.^.(.E.T.T.B.N.N.I   9 a | O.O.O.O.O.O.",
"O.O.O.O.O.O.O._ * 8  .G.W.W.R.I.H.V.n.v.v.S . E O.O.O.O.O.O.O.O.",
"O.O.O.O.O.O.O.o./ i 7 I r.r.t.f.f.q.8.P Z i R } O.O.O.O.O.O.O.O.",
"O.O.O.O.O.O.O.O.O.a   - f f n <.2.<.*.h O y O.O.O.O.O.O.O.O.O.O.",
"O.O.O.O.O.O.O.O.O.R . d c c &.<.2.2.*.h o y O.O.O.O.O.O.O.O.O.O.",
"O.O.O.O.O.O.O.O.O.R . d c h N g.g.w.V , X y O.O.O.O.O.O.O.O.O.O.",
"O.O.O.O.O.O.O.O.O.R . d x ; F T.W.Y.F     y O.O.O.O.O.O.O.O.O.O.",
"O.O.O.O.O.O.O.O.O.R . , h O D I.R.Y.Y     y O.O.O.O.O.O.O.O.O.O.",
"O.O.O.O.O.O.O.O.O.E 9 > 1 + Z b.m.m.i . # a O.O.O.O.O.O.O.O.O.O.",
"O.O.O.O.O.O.O.O.O.| ` w + 5 0 5 0 6 @ % W | O.O.O.O.O.O.O.O.O.O.",
"O.O.O.O.O.O.O.O.O.O.O.r . t u 4 4 4 X 9 } O.O.O.O.O.O.O.O.O.O.O.",
"O.O.O.O.O.O.O.O.O.O.O.r X D ! ! ! G % 9 } O.O.O.O.O.O.O.O.O.O.O.",
"O.O.O.O.O.O.O.O.O.O.O./ s ) ] ] ] ' E W o.O.O.O.O.O.O.O.O.O.O.O."
};
