/* XPM */
static char *result[] = {
/* columns rows colors chars-per-pixel */
"32 32 187 2 ",
"   c #070504",
".  c #0D0404",
"X  c #080906",
"o  c #0F0F09",
"O  c #120304",
"+  c #1B0305",
"@  c #120907",
"#  c #160E09",
"$  c #1C0B08",
"%  c #16150C",
"&  c #1F140C",
"*  c #191D11",
"=  c #230306",
"-  c #2B0205",
";  c #2A0B0B",
":  c #320204",
">  c #3C0203",
",  c #340208",
"<  c #3B0009",
"1  c #3D0B0A",
"2  c #22150D",
"3  c #29170B",
"4  c #34180C",
"5  c #251A11",
"6  c #361819",
"7  c #1D2113",
"8  c #27200E",
"9  c #222615",
"0  c #2A2513",
"q  c #232917",
"w  c #292B18",
"e  c #282F1A",
"r  c #342814",
"t  c #3B2C18",
"y  c #2D341D",
"u  c #35351D",
"i  c #32381E",
"p  c #343B21",
"a  c #450404",
"s  c #4C0103",
"d  c #4E0C06",
"f  c #430009",
"g  c #4C0109",
"h  c #540005",
"j  c #5C0004",
"k  c #5B080A",
"l  c #42160D",
"z  c #4B190C",
"x  c #54180B",
"c  c #461714",
"v  c #660003",
"b  c #6C0102",
"n  c #680B08",
"m  c #750101",
"M  c #7D0000",
"N  c #7C0A07",
"B  c #7D0C0A",
"V  c #631408",
"C  c #53260E",
"Z  c #4D2E18",
"A  c #403314",
"S  c #49391A",
"D  c #553814",
"F  c #632711",
"G  c #643910",
"H  c #463829",
"J  c #722D24",
"K  c #713926",
"L  c #643737",
"P  c #374023",
"I  c #394225",
"U  c #3D4827",
"Y  c #3E4928",
"T  c #79400F",
"R  c #6E4A17",
"E  c #765013",
"W  c #424C29",
"Q  c #5A4725",
"!  c #534328",
"~  c #46522C",
"^  c #4C552C",
"/  c #4D5A31",
"(  c #505E32",
")  c #6B4925",
"_  c #72542B",
"`  c #7C552B",
"'  c #64583E",
"]  c #536235",
"[  c #586738",
"{  c #5F5345",
"}  c #634042",
"|  c #695F58",
" . c #755B58",
".. c #716256",
"X. c #840000",
"o. c #8E0203",
"O. c #850A06",
"+. c #930101",
"@. c #9D0100",
"#. c #980F0B",
"$. c #92150A",
"%. c #9E1B10",
"&. c #A30101",
"*. c #AC0000",
"=. c #A00A0A",
"-. c #B50201",
";. c #BC0404",
":. c #BB0909",
">. c #A9120A",
",. c #B2180D",
"<. c #AF1112",
"1. c #A01F12",
"2. c #BD1010",
"3. c #802007",
"4. c #953018",
"5. c #B02615",
"6. c #872D2A",
"7. c #8A3F24",
"8. c #933633",
"9. c #A33325",
"0. c #B03D22",
"q. c #AD3C3A",
"w. c #C40808",
"e. c #C80C0C",
"r. c #C91212",
"t. c #C31919",
"y. c #D41313",
"u. c #E21C1C",
"i. c #C0201F",
"p. c #F12424",
"a. c #F32B2B",
"s. c #FF2D2D",
"d. c #EE3534",
"f. c #F13837",
"g. c #F63D3B",
"h. c #84482A",
"j. c #975A2E",
"k. c #9B5F30",
"l. c #AF4221",
"z. c #B54B28",
"x. c #AF423D",
"c. c #AB503A",
"v. c #876030",
"b. c #996131",
"n. c #A46633",
"m. c #A77139",
"M. c #D55F2F",
"N. c #C06736",
"B. c #C77B3F",
"V. c #91524D",
"C. c #A14F4C",
"Z. c #BC4843",
"A. c #876B47",
"S. c #AA6A4E",
"D. c #B97F40",
"F. c #A5615D",
"G. c #B87752",
"H. c #8B6465",
"J. c #9A6D6D",
"K. c #877866",
"L. c #897F6A",
"P. c #B36E68",
"I. c #8F8577",
"U. c #8C877A",
"Y. c #958C79",
"T. c #988E79",
"R. c #CB8444",
"E. c #C48548",
"W. c #D1914A",
"Q. c #C7825F",
"!. c #DC9A51",
"~. c #E18B45",
"^. c #EDA95B",
"/. c #F3A552",
"(. c #F5A853",
"). c #C88278",
"_. c #D1A975",
"`. c #F6B060",
"'. c #948B80",
"]. c #A38E89",
"[. c #B48888",
"{. c #A89889",
"}. c #B4A49A",
"|. c #D38B80",
" X c #C6B4A7",
".X c #F6C88C",
"XX c #D1C2BA",
/* pixels */
"[ [ [ [ [ [ [ [ [ [ [ [ [ [ ] ] ( ] [ [ [ [ [ [ [ [ [ [ [ [ [ [ ",
"[ [ [ [ [ [ [ [ [ [ [ [ [ / e 7 7 U [ [ [ [ [ [ [ [ [ [ [ [ [ [ ",
"[ [ [ [ [ [ [ [ [ [ [ [ ^ I 1 - - t ~ ] [ [ [ [ [ [ [ [ [ [ [ [ ",
"[ [ [ [ [ [ [ [ [ [ [ ] y 3 N +.+.d 7 ~ [ [ [ [ [ [ [ [ [ [ [ [ ",
"[ [ [ [ [ [ [ [ [ [ ~ i z n 2.y.y.O.d t Y ] [ [ [ [ [ [ [ [ [ [ ",
"[ [ [ [ [ [ [ [ [ [ i . m w.p.s.s.y.@.: 7 / [ [ [ [ [ [ [ [ [ [ ",
"[ [ [ [ [ [ ( p q q w 4 O.w.p.s.s.y.&.x 0 q q e ~ [ [ [ [ [ [ [ ",
"[ [ [ [ [ ( Y 5 O @ 3 D 3.-.u.p.p.e.=.F r $ O @ i ^ ] [ [ [ [ [ ",
"[ [ [ [ [ I * ; < < C E B $.:.e.e.*.O.T G 1 , < 2 y / [ [ [ [ [ ",
"[ [ [ / I 0 = < g h C R K 6.x.x.Z.8.J R G k g f - 2 u W [ [ [ [ ",
"[ [ [ I o = f f h b V S { K.}. X X'.| H C n j f f , @ y [ [ [ [ ",
"[ [ [ I X - v j v m n F ..U.I.L.K.I.I.K V m v v j a O e [ [ [ [ ",
"[ [ [ P X > m M M X.M O.J.{.' ! ! I.{.6.X.M M M m j + e [ [ [ [ ",
"[ [ [ I X > M +.&.&.&.=.V.I.Y.T.T.U.K.%.&.&.&.@.X.j + e [ [ [ [ ",
"[ [ [ P X : b +.&.-.;.r.q.F.).|.|.P.C.i.w.-.*.@.M s O e [ [ [ [ ",
"[ [ [ P X - h b +.*.y.a.a.d.f.g.g.f.d.a.u.;.+.M j < O e [ [ [ [ ",
"[ [ [ ~ y 5 , s b X.=.t.i.2.t.t.t.t.t.t.<.o.m j < ; w Y [ [ [ [ ",
"[ [ [ [ [ y @ , f f k B N m N O.O.m m B n f f < $ 7 ~ [ [ [ [ [ ",
"[ [ [ [ [ ~ p 5 + + } [.L c S.Q.Q.K 6 J.H.6 + $ e W ( [ [ [ [ [ ",
"[ [ [ [ [ [ / 7 . =  .XX..! _..X.XA.H }.].c O X Y [ [ [ [ [ [ [ ",
"[ [ [ [ [ [ / 7 , X.9.G.E.W.^.`.`.!.E.G.c.#.s X W [ [ [ [ [ [ [ ",
"[ [ [ [ [ ~ p l v &.,.0.N.R.R.R.R.R.B.z.5.:.M a t W ( [ [ [ [ [ ",
"[ [ [ [ [ y $ O.-.-.-.-.4.h.h.h.h.h.7.>.-.-.-.*.< * ~ [ [ [ [ [ ",
"[ [ [ ~ y Q b.z.l.n b +.#.1.1.1.1.1.1.+.M j 4.M.c._ p Y [ [ [ [ ",
"[ [ [ I X v././.m.2 : M +.*.-.*.*.*.*.X.h O ` /.(.D.4 e [ [ [ [ ",
"[ [ [ p X ` (.~.k.& : M X.X.X.X.X.X.X.M h O ) ~./.D.r e [ [ [ [ ",
"[ [ [ W 7 ) m.b.R # - v m m M m M m m v s . Z j.n.v.u P [ [ [ [ ",
"[ [ [ ] ( p 2 2 #   = s v m m m m M m h : . o & & e W ] [ [ [ [ ",
"[ [ [ [ [ ~ y y 9 X $ z x x a > > d x z 3 . * y y I / [ [ [ [ [ ",
"[ [ [ [ [ [ [ [ U % 8 t t r #   X 8 A A r o i [ [ [ [ [ [ [ [ [ ",
"[ [ [ [ [ [ [ [ ( U ^ ^ ^ ^ W I W ~ ^ ^ ~ Y ^ [ [ [ [ [ [ [ [ [ ",
"[ [ [ [ [ [ [ [ [ [ [ [ [ [ [ [ [ [ [ [ [ [ [ [ [ [ [ [ [ [ [ [ "
};
