/* XPM */
static char *_b62c34bfe164917e724439885156a4ezlyKJE84vYjeJ1Tk[] = {
/* columns rows colors chars-per-pixel */
"32 32 106 2 ",
"   c #141316",
".  c #1C231C",
"X  c #1E281F",
"o  c #2E2616",
"O  c #2F2917",
"+  c #25261D",
"@  c #28261A",
"#  c #26291E",
"$  c #282A1E",
"%  c #3E2D13",
"&  c #362C18",
"*  c #382D18",
"=  c #34341D",
"-  c #37381D",
";  c #1E2D23",
":  c #1E362A",
">  c #1F3E2E",
",  c #252B20",
"<  c #292C20",
"1  c #263322",
"2  c #2C3423",
"3  c #2B3A26",
"4  c #213728",
"5  c #203E2E",
"6  c #313522",
"7  c #353B25",
"8  c #393E26",
"9  c #412D13",
"0  c #473616",
"q  c #483716",
"w  c #4B3916",
"e  c #42391F",
"r  c #523B14",
"t  c #23442F",
"y  c #29462B",
"u  c #2A492D",
"i  c #354225",
"p  c #3A4226",
"a  c #3E472A",
"s  c #33492A",
"d  c #3E482B",
"f  c #3E512A",
"g  c #264B31",
"h  c #2B5535",
"j  c #2D5936",
"k  c #3E5A33",
"l  c #346137",
"z  c #31623A",
"x  c #346C3D",
"c  c #3A6F3D",
"v  c #3D733F",
"b  c #5D4618",
"n  c #5F4819",
"m  c #434D2D",
"M  c #4A4B2B",
"N  c #45502E",
"B  c #49532F",
"V  c #43582B",
"C  c #5C5027",
"Z  c #4B5631",
"A  c #4E5932",
"S  c #515E34",
"D  c #675320",
"F  c #695522",
"G  c #6F5F2D",
"H  c #416E3C",
"J  c #4A6E38",
"K  c #566437",
"L  c #586738",
"P  c #44723E",
"I  c #4F753B",
"U  c #5C7432",
"Y  c #587F3A",
"T  c #74602C",
"R  c #78612A",
"E  c #607933",
"W  c #467A41",
"Q  c #5B843C",
"!  c #71933A",
"~  c #74983B",
"^  c #7A9F3D",
"/  c #4F8241",
"(  c #508443",
")  c #518544",
"_  c #538844",
"`  c #538845",
"'  c #598C46",
"]  c #5E9145",
"[  c #5F9246",
"{  c #609346",
"}  c #689C46",
"|  c #699D47",
" . c #70A145",
".. c #72A446",
"X. c #73A647",
"o. c #74A647",
"O. c #74A747",
"+. c #7DAC45",
"@. c #7FAF46",
"#. c #7FAF47",
"$. c #80B047",
"%. c #8DBC47",
"&. c #95C347",
"*. c #97C648",
"=. c #98C748",
"-. c #9AC949",
/* pixels */
"L L L L L L L L L L L L K Z #     $ Z K L L L L L L L L L L L L ",
"L L L L L L L L L L L K Z a i - - i m S K L L L L L L L L L L L ",
"L L L L L L L L L L K Z 7 p E ! ! U 8 7 A L L L L L L L L L L L ",
"L L L L L L L L L K A a 2 V ^ -.&.~ f 2 d A K L L L L L L L L L ",
"L L L L L L L L K A 6 3 k Q #.=.=.+.Y f 2 7 A K L L L L L L L L ",
"L L L L L L L L K N , 3 I X.#.&.%.+. .J 1 , Z L L L L L L L L L ",
"L L L L L L L L K N # 3 Q O.$.$.$.$.X.Y 4 # Z L L L L L L L L L ",
"L L L L L L L K A d 1 s Q O.O.O.O.O...Y i 1 d A K L L L L L L L ",
"L L L L L L L Z 6 2 u x _ | O.O.+.o.} ( z y 2 7 A L L L L L L L ",
"L L L L L K Z d , 4 z P _ [ | O.o.} [ ( W j 1 , m A L L L L L L ",
"L L L L L Z 6 , 1 g P _ ' ' [ [ { { ' ' ( H t ; # 7 A L L L L L ",
"L L L L K N + . 4 j W _ ' ' ' ' ' ' ' ` ) W h 4 . # B L L L L L ",
"L L L L K N + X g z v W _ ' ' ' ' ' ' ( W c l t , # Z L L L L L ",
"L L L L K N # X j x x v W ) / _ ( ( ( W v x x h . < V L L L L L ",
"L L L L K N # X j x x x v v v v v v P v x x z h ; # B K L L L L ",
"L L L L K N # ; g z x x x x c x x x x x x c z t ; $ V L L L L L ",
"L L L L K N # . > j z x x x x x x x x x x z h : . # Z L L L L L ",
"L L L L K m # X : g j z z z z z z z z z z h g : . # V L L L L L ",
"L L L L L N #   : t g g g g g g g g g g g g > :   $ Z L L L L L ",
"L L L L K N < ; : : > > > > > > > > > 5 > t 4 ; + 3 Z L L L L L ",
"L L L L K S a 6 ; ; : > 5 > > t t > > > > : X X 6 a S K L L L L ",
"L L L K S Z m 7 + . ; : 5 4 3 3 3 3 5 : : ; X # p m A K K L L L ",
"L L L K Z m m d 8 6 ;   + O 7 0 e - O ; . X = p a d m Z S L L L ",
"L L K S m a a d d 8 $   o 9 q r r 0 % o . @ 7 a a a a N S L L L ",
"L L L S m a a d d 8 @ o % q b b n r 0 % o # 8 m d a a N S L L L ",
"L L K S m d a d a 8 = & 9 r n F F b r 9 * 6 8 d d a a N S K L L ",
"L L K S m a a a a a 8 6 * w F T R D q * 6 8 a a a d a m S L L L ",
"L L L S m a a a a a a 8 = e D G T C 7 & 8 m d d a a a N S L L L ",
"L L L S N a a a p a a a 8 8 M B M M 7 8 a a a a a a a m S L L L ",
"L L L S Z m m a m a a a m p m d m m p m a a a a a a m Z K L L L ",
"L L L K S Z m a a a a a p m a d a a a a a a a a a m A K K L L L ",
"L L L L L S m a a a a m p a a a a a a a a a a a a m S K L L L L "
};
